<svg width="19" height="18" viewBox="0 0 19 18" fill="none" xmlns="http://www.w3.org/2000/svg">
<g clip-path="url(#clip0_44_46)">
<path d="M6.24499 7.50001C6.1483 7.50528 6.05205 7.48372 5.96685 7.4377C5.88166 7.39168 5.81086 7.323 5.76227 7.23925C5.71368 7.15549 5.6892 7.05994 5.69153 6.96314C5.69386 6.86634 5.72292 6.77207 5.77549 6.69076L8.56999 2.25001C8.6139 2.17093 8.67749 2.10455 8.75461 2.05728C8.83172 2.01001 8.91974 1.98347 9.01013 1.98023C9.10052 1.97698 9.19022 1.99715 9.27052 2.03876C9.35083 2.08038 9.41902 2.14204 9.46849 2.21776L12.245 6.67501C12.2997 6.7536 12.3319 6.84567 12.3381 6.94124C12.3442 7.03681 12.3241 7.13225 12.2799 7.21722C12.2358 7.30219 12.1692 7.37346 12.0874 7.4233C12.0056 7.47315 11.9118 7.49967 11.816 7.50001H6.24499Z" stroke="#444342" stroke-width="1.5" stroke-linecap="round" stroke-linejoin="round"/>
<path d="M6.76999 10.5H3.01999C2.60578 10.5 2.26999 10.8358 2.26999 11.25V15C2.26999 15.4142 2.60578 15.75 3.01999 15.75H6.76999C7.1842 15.75 7.51999 15.4142 7.51999 15V11.25C7.51999 10.8358 7.1842 10.5 6.76999 10.5Z" stroke="#444342" stroke-width="1.5" stroke-linecap="round" stroke-linejoin="round"/>
<path d="M13.145 15.75C14.5947 15.75 15.77 14.5747 15.77 13.125C15.77 11.6753 14.5947 10.5 13.145 10.5C11.6952 10.5 10.52 11.6753 10.52 13.125C10.52 14.5747 11.6952 15.75 13.145 15.75Z" stroke="#444342" stroke-width="1.5" stroke-linecap="round" stroke-linejoin="round"/>
</g>
<defs>
<clipPath id="clip0_44_46">
<rect width="18" height="18" fill="white" transform="translate(0.019989)"/>
</clipPath>
</defs>
</svg>
