<?xml version="1.0" standalone="no"?>
<!DOCTYPE svg PUBLIC "-//W3C//DTD SVG 20010904//EN"
 "http://www.w3.org/TR/2001/REC-SVG-20010904/DTD/svg10.dtd">
<svg version="1.0" xmlns="http://www.w3.org/2000/svg"
 width="111.000000pt" height="109.000000pt" viewBox="0 0 111.000000 109.000000"
 preserveAspectRatio="xMidYMid meet">

<g transform="translate(0.000000,109.000000) scale(0.100000,-0.100000)"
fill="#FFFFFF" stroke="none">
<path d="M245 1076 c-63 -20 -97 -41 -142 -87 -91 -91 -107 -170 -101 -492 4
-210 7 -237 27 -288 29 -76 89 -141 159 -176 l57 -28 305 0 c290 0 307 1 351
21 67 31 124 87 159 156 l30 61 0 293 c0 272 -2 297 -21 348 -26 70 -92 139
-167 174 l-57 27 -280 2 c-204 1 -291 -2 -320 -11z m138 -315 c51 -12 101 -48
125 -89 l19 -34 22 36 c13 20 44 48 69 63 126 74 282 -14 294 -167 l3 -45
-157 -3 c-173 -3 -173 -3 -138 -60 43 -70 138 -78 196 -17 l31 34 29 -30 28
-29 -29 -30 c-64 -67 -161 -87 -241 -51 -49 22 -102 84 -110 128 -3 18 -7 33
-9 33 -1 0 -19 -16 -40 -35 l-37 -36 36 -54 36 -55 -47 0 c-46 0 -49 2 -78 45
-28 41 -33 45 -72 45 l-43 0 0 -45 0 -45 -40 0 -40 0 0 225 0 225 78 0 c42 0
94 -4 115 -9z"/>
<path d="M270 585 l0 -95 34 0 c110 0 167 55 135 131 -15 38 -60 59 -124 59
l-45 0 0 -95z"/>
<path d="M658 664 c-23 -12 -48 -42 -48 -57 0 -3 47 -5 106 -6 l105 -2 -16 31
c-25 49 -92 64 -147 34z"/>
</g>
</svg>
