<?xml version="1.0" standalone="no"?>
<!DOCTYPE svg PUBLIC "-//W3C//DTD SVG 20010904//EN"
 "http://www.w3.org/TR/2001/REC-SVG-20010904/DTD/svg10.dtd">
<svg version="1.0" xmlns="http://www.w3.org/2000/svg"
 width="256.000000pt" height="167.000000pt" viewBox="0 0 256.000000 167.000000"
 preserveAspectRatio="xMidYMid meet">

<g transform="translate(0.000000,167.000000) scale(0.100000,-0.100000)"
fill="#000000" stroke="none">
<path d="M975 1656 c-63 -20 -97 -41 -142 -87 -91 -91 -107 -170 -101 -492 4
-210 7 -237 27 -288 29 -76 89 -141 159 -176 l57 -28 305 0 c290 0 307 1 351
21 67 31 124 87 159 156 l30 61 0 293 c0 272 -2 297 -21 348 -26 70 -92 139
-167 174 l-57 27 -280 2 c-204 1 -291 -2 -320 -11z m138 -315 c51 -12 101 -48
125 -89 l19 -34 22 36 c13 20 44 48 69 63 126 74 282 -14 294 -167 l3 -45
-157 -3 c-173 -3 -173 -3 -138 -60 43 -70 138 -78 196 -17 l31 34 29 -30 28
-29 -29 -30 c-64 -67 -161 -87 -241 -51 -49 22 -102 84 -110 128 -3 18 -7 33
-9 33 -1 0 -19 -16 -40 -35 l-37 -36 36 -54 36 -55 -47 0 c-46 0 -49 2 -78 45
-28 41 -33 45 -72 45 l-43 0 0 -45 0 -45 -40 0 -40 0 0 225 0 225 78 0 c42 0
94 -4 115 -9z"/>
<path d="M1000 1165 l0 -95 34 0 c110 0 167 55 135 131 -15 38 -60 59 -124 59
l-45 0 0 -95z"/>
<path d="M1388 1244 c-23 -12 -48 -42 -48 -57 0 -3 47 -5 106 -6 l105 -2 -16
31 c-25 49 -92 64 -147 34z"/>
<path d="M772 455 c-34 -15 -62 -63 -62 -109 0 -15 -7 -25 -20 -29 -27 -7 -27
-47 0 -54 17 -5 20 -15 22 -112 l3 -106 33 -3 32 -3 0 110 0 111 65 0 65 0 0
-111 0 -110 33 3 32 3 3 203 2 202 -35 0 -35 0 0 -65 0 -65 -55 0 c-30 0 -58
-1 -62 -2 -5 -2 -9 10 -11 25 -4 37 23 67 60 67 23 0 28 4 28 24 0 38 -40 46
-98 21z"/>
<path d="M2490 378 c0 -49 -3 -88 -7 -88 -5 0 -17 7 -27 15 -12 9 -42 15 -79
15 -56 0 -62 -2 -98 -39 -25 -25 -40 -49 -41 -67 -4 -83 15 -129 63 -158 39
-23 120 -24 153 -3 31 21 36 21 36 2 0 -10 10 -15 30 -15 l30 0 0 213 0 212
-30 0 -30 0 0 -87z m-34 -131 c39 -34 40 -100 1 -133 -37 -32 -87 -32 -124 0
-61 53 -21 156 62 156 21 0 44 -9 61 -23z"/>
<path d="M10 240 l0 -200 30 0 30 0 0 75 0 75 45 0 44 0 38 -72 c35 -66 41
-72 71 -72 17 -1 32 1 32 3 0 1 -16 34 -36 72 l-36 68 35 34 c43 40 56 91 35
145 -21 56 -61 72 -185 72 l-103 0 0 -200z m213 119 c23 -29 22 -64 -5 -89
-17 -16 -35 -20 -85 -20 l-63 0 0 63 c0 35 3 67 8 71 4 5 34 5 67 2 44 -4 65
-11 78 -27z"/>
<path d="M1940 240 l0 -200 128 0 c71 0 131 2 134 5 3 3 3 17 0 30 -4 24 -6
25 -98 25 l-94 0 0 58 0 58 70 -4 70 -4 0 31 0 31 -68 0 c-38 0 -71 2 -73 4
-2 2 -2 30 -1 61 l4 56 94 -3 94 -3 0 28 0 27 -130 0 -130 0 0 -200z"/>
<path d="M1730 360 c0 -33 -3 -40 -20 -40 -16 0 -20 -7 -20 -30 0 -23 5 -30
19 -30 16 0 19 -10 23 -91 5 -111 19 -129 99 -129 46 0 49 2 49 25 0 21 -5 25
-28 25 -43 0 -52 17 -52 96 l0 73 33 3 c27 2 32 7 32 28 0 21 -5 26 -32 28
-31 3 -33 6 -33 43 0 38 -1 39 -35 39 -34 0 -35 -1 -35 -40z"/>
<path d="M398 304 c-38 -20 -60 -68 -60 -126 0 -90 56 -138 162 -138 88 0 110
7 110 35 0 23 -2 23 -77 18 -70 -5 -81 -3 -105 17 -16 12 -28 26 -28 31 0 5
51 9 115 9 l115 0 0 41 c0 49 -22 90 -60 113 -35 20 -135 21 -172 0z m135 -45
c25 -14 37 -28 37 -46 0 -10 -24 -13 -85 -13 -92 0 -101 7 -63 47 24 26 74 31
111 12z"/>
<path d="M1083 287 c-31 -29 -37 -41 -41 -89 -9 -107 44 -158 165 -158 87 0
103 5 103 35 0 22 -3 22 -65 18 -71 -6 -119 8 -136 38 -9 18 -4 19 111 19
l120 0 0 30 c0 89 -58 140 -158 140 -57 0 -66 -3 -99 -33z m167 -37 c40 -40
28 -50 -65 -50 -92 0 -100 6 -60 45 31 32 96 34 125 5z"/>
<path d="M1463 305 c-95 -41 -97 -201 -4 -250 34 -17 142 -20 172 -5 26 14 27
66 2 54 -10 -4 -41 -10 -70 -12 -45 -3 -55 -1 -78 22 -19 19 -25 36 -25 66 0
30 6 47 25 66 23 23 33 25 78 22 29 -2 60 -8 70 -12 25 -12 24 40 -2 54 -28
14 -130 12 -168 -5z"/>
</g>
</svg>
