<svg width="19" height="18" viewBox="0 0 19 18" fill="none" xmlns="http://www.w3.org/2000/svg">
<path d="M9.41998 11.25C10.6626 11.25 11.67 10.2426 11.67 9C11.67 7.75736 10.6626 6.75 9.41998 6.75C8.17734 6.75 7.16998 7.75736 7.16998 9C7.16998 10.2426 8.17734 11.25 9.41998 11.25Z" stroke="#444342" stroke-width="1.5" stroke-linecap="round" stroke-linejoin="round"/>
<path d="M14.97 11.25C14.8701 11.4762 14.8404 11.7271 14.8845 11.9704C14.9286 12.2137 15.0446 12.4382 15.2175 12.615L15.2625 12.66C15.4019 12.7993 15.5126 12.9647 15.5881 13.1468C15.6636 13.3289 15.7024 13.5241 15.7024 13.7213C15.7024 13.9184 15.6636 14.1136 15.5881 14.2957C15.5126 14.4778 15.4019 14.6432 15.2625 14.7825C15.1232 14.922 14.9577 15.0326 14.7756 15.1081C14.5935 15.1836 14.3984 15.2224 14.2012 15.2224C14.0041 15.2224 13.8089 15.1836 13.6268 15.1081C13.4447 15.0326 13.2793 14.922 13.14 14.7825L13.095 14.7375C12.9182 14.5646 12.6937 14.4486 12.4504 14.4045C12.2071 14.3604 11.9562 14.3902 11.73 14.49C11.5082 14.5851 11.319 14.7429 11.1857 14.9442C11.0525 15.1454 10.9809 15.3812 10.98 15.6225V15.75C10.98 16.1478 10.8219 16.5294 10.5406 16.8107C10.2593 17.092 9.87781 17.25 9.47998 17.25C9.08216 17.25 8.70063 17.092 8.41932 16.8107C8.13802 16.5294 7.97998 16.1478 7.97998 15.75V15.6825C7.97418 15.4343 7.89382 15.1935 7.74937 14.9915C7.60491 14.7896 7.40303 14.6357 7.16998 14.55C6.94377 14.4502 6.69284 14.4204 6.44954 14.4645C6.20625 14.5086 5.98174 14.6246 5.80498 14.7975L5.75998 14.8425C5.62067 14.982 5.45524 15.0926 5.27314 15.1681C5.09105 15.2436 4.89586 15.2824 4.69873 15.2824C4.50161 15.2824 4.30642 15.2436 4.12432 15.1681C3.94223 15.0926 3.77679 14.982 3.63748 14.8425C3.49802 14.7032 3.38738 14.5378 3.31189 14.3557C3.23641 14.1736 3.19755 13.9784 3.19755 13.7812C3.19755 13.5841 3.23641 13.3889 3.31189 13.2068C3.38738 13.0247 3.49802 12.8593 3.63748 12.72L3.68248 12.675C3.85539 12.4982 3.97137 12.2737 4.01549 12.0304C4.0596 11.7871 4.02982 11.5362 3.92998 11.31C3.83491 11.0882 3.67705 10.899 3.47583 10.7657C3.27461 10.6325 3.03882 10.561 2.79748 10.56H2.66998C2.27216 10.56 1.89063 10.402 1.60932 10.1207C1.32802 9.83936 1.16998 9.45782 1.16998 9.06C1.16998 8.66218 1.32802 8.28064 1.60932 7.99934C1.89063 7.71804 2.27216 7.56 2.66998 7.56H2.73748C2.98573 7.55419 3.22649 7.47384 3.42846 7.32938C3.63043 7.18493 3.78427 6.98305 3.86998 6.75C3.96982 6.52379 3.9996 6.27286 3.95549 6.02956C3.91137 5.78626 3.79539 5.56176 3.62248 5.385L3.57748 5.34C3.43802 5.20069 3.32738 5.03526 3.25189 4.85316C3.17641 4.67106 3.13755 4.47587 3.13755 4.27875C3.13755 4.08163 3.17641 3.88644 3.25189 3.70434C3.32738 3.52224 3.43802 3.35681 3.57748 3.2175C3.71679 3.07804 3.88223 2.9674 4.06432 2.89191C4.24642 2.81642 4.44161 2.77757 4.63873 2.77757C4.83586 2.77757 5.03105 2.81642 5.21314 2.89191C5.39524 2.9674 5.56067 3.07804 5.69998 3.2175L5.74498 3.2625C5.92174 3.4354 6.14624 3.55139 6.38954 3.5955C6.63284 3.63962 6.88377 3.60984 7.10998 3.51H7.16998C7.39181 3.41493 7.581 3.25707 7.71425 3.05585C7.84751 2.85463 7.91902 2.61884 7.91998 2.3775V2.25C7.91998 1.85218 8.07802 1.47064 8.35932 1.18934C8.64063 0.908035 9.02216 0.75 9.41998 0.75C9.81781 0.75 10.1993 0.908035 10.4806 1.18934C10.7619 1.47064 10.92 1.85218 10.92 2.25V2.3175C10.9209 2.55884 10.9925 2.79463 11.1257 2.99585C11.259 3.19707 11.4482 3.35493 11.67 3.45C11.8962 3.54984 12.1471 3.57962 12.3904 3.5355C12.6337 3.49139 12.8582 3.3754 13.035 3.2025L13.08 3.1575C13.2193 3.01804 13.3847 2.9074 13.5668 2.83191C13.7489 2.75642 13.9441 2.71757 14.1412 2.71757C14.3384 2.71757 14.5335 2.75642 14.7156 2.83191C14.8977 2.9074 15.0632 3.01804 15.2025 3.1575C15.3419 3.29681 15.4526 3.46224 15.5281 3.64434C15.6036 3.82644 15.6424 4.02163 15.6424 4.21875C15.6424 4.41587 15.6036 4.61106 15.5281 4.79316C15.4526 4.97526 15.3419 5.14069 15.2025 5.28L15.1575 5.325C14.9846 5.50176 14.8686 5.72626 14.8245 5.96956C14.7804 6.21285 14.8101 6.46379 14.91 6.69V6.75C15.0051 6.97183 15.1629 7.16101 15.3641 7.29427C15.5654 7.42753 15.8011 7.49904 16.0425 7.5H16.17C16.5678 7.5 16.9493 7.65804 17.2306 7.93934C17.5119 8.22064 17.67 8.60218 17.67 9C17.67 9.39782 17.5119 9.77936 17.2306 10.0607C16.9493 10.342 16.5678 10.5 16.17 10.5H16.1025C15.8611 10.501 15.6254 10.5725 15.4241 10.7057C15.2229 10.839 15.0651 11.0282 14.97 11.25Z" stroke="#444342" stroke-width="1.5" stroke-linecap="round" stroke-linejoin="round"/>
</svg>
