<svg width="19" height="18" viewBox="0 0 19 18" fill="none" xmlns="http://www.w3.org/2000/svg">
<g clip-path="url(#clip0_44_68)">
<path d="M13.17 15.75V14.25C13.17 13.4544 12.8539 12.6913 12.2913 12.1287C11.7287 11.5661 10.9656 11.25 10.17 11.25H4.16998C3.37433 11.25 2.61127 11.5661 2.04866 12.1287C1.48605 12.6913 1.16998 13.4544 1.16998 14.25V15.75" stroke="#444342" stroke-width="1.5" stroke-linecap="round" stroke-linejoin="round"/>
<path d="M7.16998 8.25C8.82684 8.25 10.17 6.90685 10.17 5.25C10.17 3.59315 8.82684 2.25 7.16998 2.25C5.51313 2.25 4.16998 3.59315 4.16998 5.25C4.16998 6.90685 5.51313 8.25 7.16998 8.25Z" stroke="#444342" stroke-width="1.5" stroke-linecap="round" stroke-linejoin="round"/>
<path d="M17.67 15.75V14.25C17.6695 13.5853 17.4482 12.9396 17.041 12.4142C16.6338 11.8889 16.0636 11.5137 15.42 11.3475" stroke="#444342" stroke-width="1.5" stroke-linecap="round" stroke-linejoin="round"/>
<path d="M12.42 2.3475C13.0653 2.51273 13.6373 2.88803 14.0457 3.41424C14.4542 3.94044 14.6759 4.58763 14.6759 5.25375C14.6759 5.91988 14.4542 6.56706 14.0457 7.09327C13.6373 7.61948 13.0653 7.99478 12.42 8.16" stroke="#444342" stroke-width="1.5" stroke-linecap="round" stroke-linejoin="round"/>
</g>
<defs>
<clipPath id="clip0_44_68">
<rect width="18" height="18" fill="white" transform="translate(0.419983)"/>
</clipPath>
</defs>
</svg>
